<svg xmlns="http://www.w3.org/2000/svg" xmlns:xlink="http://www.w3.org/1999/xlink" width="428" height="926" viewBox="0 0 428 926">
  <defs>
    <clipPath id="clip-iPhone_12_Pro_Max_1">
      <rect width="428" height="926"/>
    </clipPath>
  </defs>
  <g id="iPhone_12_Pro_Max_1" data-name="iPhone 12 Pro Max – 1" clip-path="url(#clip-iPhone_12_Pro_Max_1)">
    <rect width="428" height="926" fill="#3cf"/>
    <g id="Ellipse_1" data-name="Ellipse 1" transform="translate(-20 808)" fill="#fff" stroke="#707070" stroke-width="1">
      <ellipse cx="65.5" cy="68.5" rx="65.5" ry="68.5" stroke="none"/>
      <ellipse cx="65.5" cy="68.5" rx="65" ry="68" fill="none"/>
    </g>
    <g id="Ellipse_3" data-name="Ellipse 3" transform="translate(150 808)" fill="#fff" stroke="#707070" stroke-width="1">
      <ellipse cx="32.5" cy="29.5" rx="32.5" ry="29.5" stroke="none"/>
      <ellipse cx="32.5" cy="29.5" rx="32" ry="29" fill="none"/>
    </g>
    <g id="Ellipse_4" data-name="Ellipse 4" transform="translate(206 821)" fill="#fff" stroke="#707070" stroke-width="1">
      <ellipse cx="21.5" cy="23" rx="21.5" ry="23" stroke="none"/>
      <ellipse cx="21.5" cy="23" rx="21" ry="22.5" fill="none"/>
    </g>
    <g id="Ellipse_5" data-name="Ellipse 5" transform="translate(-20 808)" fill="#fff" stroke="#707070" stroke-width="1">
      <ellipse cx="65.5" cy="68.5" rx="65.5" ry="68.5" stroke="none"/>
      <ellipse cx="65.5" cy="68.5" rx="65" ry="68" fill="none"/>
    </g>
    <g id="Ellipse_7" data-name="Ellipse 7" transform="translate(150 808)" fill="#fff" stroke="#707070" stroke-width="1">
      <ellipse cx="32.5" cy="29.5" rx="32.5" ry="29.5" stroke="none"/>
      <ellipse cx="32.5" cy="29.5" rx="32" ry="29" fill="none"/>
    </g>
    <g id="Ellipse_8" data-name="Ellipse 8" transform="translate(206 821)" fill="#fff" stroke="#707070" stroke-width="1">
      <ellipse cx="21.5" cy="23" rx="21.5" ry="23" stroke="none"/>
      <ellipse cx="21.5" cy="23" rx="21" ry="22.5" fill="none"/>
    </g>
    <g id="Polygon_1" data-name="Polygon 1" transform="translate(-274 -80)" fill="#fff">
      <path d="M 677.3223266601563 1051.5 L 47.67771911621094 1051.5 C 44.86409378051758 1051.5 42.07971954345703 1051.158081054688 39.40209579467773 1050.483764648438 C 36.81972122192383 1049.833374023438 34.31871795654297 1048.869873046875 31.96859359741211 1047.619995117188 C 27.42197036743164 1045.201782226563 23.42247009277344 1041.685302734375 20.4025936126709 1037.450561523438 C 17.38271903991699 1033.2158203125 15.36096954345703 1028.288818359375 14.5558443069458 1023.202392578125 C 14.13984489440918 1020.573364257813 14.04359436035156 1017.894897460938 14.270094871521 1015.241516113281 C 14.50484466552734 1012.490234375 15.08871936798096 1009.746398925781 16.00534439086914 1007.086242675781 L 330.8276062011719 93.45026397705078 C 332.0859680175781 89.79826354980469 333.8616027832031 86.47201538085938 336.1051025390625 83.56376647949219 C 338.2268371582031 80.81339263916016 340.76220703125 78.44026184082031 343.6407165527344 76.51013946533203 C 346.4009704589844 74.65938568115234 349.4454650878906 73.23488616943359 352.6897277832031 72.27626037597656 C 355.8607177734375 71.33914184570313 359.1613464355469 70.864013671875 362.4999694824219 70.864013671875 C 365.8385925292969 70.864013671875 369.1392211914063 71.33914184570313 372.3102111816406 72.27626037597656 C 375.5544738769531 73.23488616943359 378.5989685058594 74.65938568115234 381.3592224121094 76.51013946533203 C 384.2377319335938 78.44026184082031 386.7731018066406 80.81339263916016 388.8948364257813 83.56376647949219 C 391.1383361816406 86.47201538085938 392.9139709472656 89.79826354980469 394.1723327636719 93.45026397705078 L 708.9946899414063 1007.086242675781 C 709.9113159179688 1009.746398925781 710.4952392578125 1012.490234375 710.72998046875 1015.241516113281 C 710.9564819335938 1017.894897460938 710.8602294921875 1020.573364257813 710.444091796875 1023.202514648438 C 709.6389770507813 1028.288940429688 707.6172485351563 1033.2158203125 704.5973510742188 1037.45068359375 C 701.5774536132813 1041.685302734375 697.5779418945313 1045.201904296875 693.0313720703125 1047.619995117188 C 690.6813354492188 1048.869873046875 688.1803588867188 1049.833374023438 685.5978393554688 1050.483764648438 C 682.9203491210938 1051.158081054688 680.135986328125 1051.5 677.3223266601563 1051.5 Z" stroke="none"/>
      <path d="M 362.4999694824219 71.3638916015625 C 359.2093505859375 71.3638916015625 355.9563293457031 71.8321533203125 352.8313293457031 72.755615234375 C 349.6358337402344 73.6998291015625 346.6373596191406 75.1029052734375 343.9192199707031 76.92529296875 C 341.0854797363281 78.8253173828125 338.589599609375 81.1614990234375 336.5009765625 83.869140625 C 334.2907104492188 86.7342529296875 332.5409545898438 90.0126953125 331.3003540039063 93.6131591796875 L 16.47808837890625 1007.249145507813 C 15.5748291015625 1009.870361328125 14.99957275390625 1012.57373046875 14.76824951171875 1015.283996582031 C 14.54522705078125 1017.897155761719 14.63995361328125 1020.535034179688 15.04974365234375 1023.124267578125 C 15.84283447265625 1028.134521484375 17.8345947265625 1032.988159179688 20.8096923828125 1037.16015625 C 23.78485107421875 1041.332275390625 27.7247314453125 1044.796508789063 32.2034912109375 1047.178466796875 C 34.517822265625 1048.409545898438 36.98095703125 1049.3583984375 39.52423095703125 1049.998901367188 C 42.1619873046875 1050.6630859375 44.90521240234375 1051 47.677734375 1051 L 677.3223266601563 1051 C 680.0948486328125 1051 682.8380737304688 1050.663208007813 685.4757080078125 1049.998901367188 C 688.0191040039063 1049.3583984375 690.4821166992188 1048.409545898438 692.7965698242188 1047.178466796875 C 697.2752075195313 1044.796508789063 701.2149658203125 1041.332275390625 704.1902465820313 1037.160278320313 C 707.1653442382813 1032.988159179688 709.1572265625 1028.134643554688 709.9501953125 1023.124267578125 C 710.360107421875 1020.535034179688 710.4547119140625 1017.897277832031 710.231689453125 1015.283996582031 C 710.00048828125 1012.57373046875 709.4252319335938 1009.870361328125 708.52197265625 1007.249145507813 L 393.6995849609375 93.6131591796875 C 392.458984375 90.0126953125 390.709228515625 86.7342529296875 388.4989624023438 83.869140625 C 386.4102172851563 81.1614990234375 383.9143371582031 78.8253173828125 381.0807189941406 76.92529296875 C 378.3625793457031 75.1029052734375 375.3641052246094 73.6998291015625 372.16845703125 72.755615234375 C 369.04345703125 71.8321533203125 365.7904663085938 71.3638916015625 362.4999694824219 71.3638916015625 M 362.4999694824219 70.3638916015625 C 375.9395446777344 70.3638916015625 389.3790893554688 78.005126953125 394.6450805664063 93.28741455078125 L 709.4674682617188 1006.923400878906 C 717.0748291015625 1029.000854492188 700.6737060546875 1052 677.3223266601563 1052 L 47.677734375 1052 C 24.32623291015625 1052 7.92510986328125 1029.000854492188 15.5325927734375 1006.923400878906 L 330.3548583984375 93.28741455078125 C 335.620849609375 78.005126953125 349.0603942871094 70.3638916015625 362.4999694824219 70.3638916015625 Z" stroke="none" fill="#707070"/>
    </g>
  </g>
</svg>
